<svg xmlns="http://www.w3.org/2000/svg" width="28" height="28" viewBox="0 0 28 28" role="img" aria-label="PlaneServe mark reversed">
  <rect x="0.75" y="0.75" width="26.5" height="26.5" rx="6" fill="none" stroke="#FFFFFF" stroke-opacity="0.22"></rect>
  <g transform="translate(6 6) scale(0.6667)" fill="none" stroke="#2563C9" stroke-width="2.2" stroke-linecap="round" stroke-linejoin="round">
    <path d="M17.8 19.2 16 11l3.5-3.5C21 6 21.5 4 21 3c-1-.5-3 0-4.5 1.5L13 8 4.8 6.2c-.5-.1-.9.1-1.1.5l-.3.5c-.2.5-.1 1 .3 1.3L9 12l-2 3H4l-1 1 3 2 2 3 1-1v-3l3-2 3.5 5.3c.3.4.8.5 1.3.3l.5-.2c.4-.3.6-.7.5-1.2z"></path>
  </g>
</svg>