<svg xmlns="http://www.w3.org/2000/svg" viewBox="0 0 220 32" width="220" height="32" role="img" aria-label="Aircraft Program">
  <rect x="0.5" y="2.5" width="27" height="27" rx="6" fill="#001B2E"/>
  <path d="M17.867 20.8 16.667 15.333 19 13c1-1 1.333-2.333 1-3-.667-.333-2 0-3 1l-2.333 2.333L9.2 12.133c-.333-.067-.6.067-.733.333l-.2.334c-.134.333-.067.666.2.866L12 16l-1.333 2H8.667L8 18.667 10 20l1.333 2 .667-.667v-2l2-1.333 2.333 3.533c.2.267.534.334.867.2l.333-.133c.267-.2.4-.467.334-.8Z" fill="none" stroke="#1E88E5" stroke-width="1.7" stroke-linecap="round" stroke-linejoin="round"/>
  <text x="38" y="22" fill="#001B2E" font-family="Poppins, Arial, sans-serif" font-size="18" font-weight="600">Aircraft Program</text>
</svg>
